<svg width="229" height="71" viewBox="0 0 229 71" fill="none" xmlns="http://www.w3.org/2000/svg">
<path d="M39.4397 38.2397C39.4397 38.2397 40.4438 52.5587 24.5141 55.3828C24.5141 55.3828 21.2507 56.3869 15.0692 55.8116C15.0692 55.8116 13.9919 62.9345 20.6545 67.7563C20.8533 65.4656 22.0666 55.7907 33.0908 59.9535C34.3564 58.8134 43.4979 51.1467 39.4397 38.2397Z" fill="#F27D00"/>
<path d="M28.2577 71.0094C30.7532 71.0094 32.7762 68.9864 32.7762 66.4909C32.7762 63.9954 30.7532 61.9724 28.2577 61.9724C25.7622 61.9724 23.7393 63.9954 23.7393 66.4909C23.7393 68.9864 25.7622 71.0094 28.2577 71.0094Z" fill="#F27D00"/>
<path d="M37.5154 38.2397C37.5154 38.2397 36.3753 46.6491 28.9805 52.4227C31.4698 51.4814 39.4399 46.5027 37.5154 38.2397Z" fill="#F27D00"/>
<path d="M35.4238 38.9197C35.4238 38.9197 23.4372 46.8166 13.1661 34.3175C13.1661 34.3175 10.6872 31.9746 8.16648 26.2952C8.16648 26.2952 1.43061 28.8473 0.489258 37.0161C2.58114 36.0747 11.6181 32.3826 13.3857 44.0344C14.9965 44.5782 26.1567 48.7934 35.4238 38.9197Z" fill="#F27D00"/>
<path d="M5.31047 47.5379C7.80595 47.5379 9.82894 45.5149 9.82894 43.0194C9.82894 40.524 7.80595 38.501 5.31047 38.501C2.81498 38.501 0.791992 40.524 0.791992 43.0194C0.791992 45.5149 2.81498 47.5379 5.31047 47.5379Z" fill="#F27D00"/>
<path d="M34.4824 37.246C34.4824 37.246 26.596 40.3734 17.9355 36.7544C19.9647 38.4593 28.2067 42.9673 34.4824 37.246Z" fill="#F27D00"/>
<path d="M32.8511 35.6874C32.8511 35.6874 20.1847 28.9307 26.2616 13.9318C26.2616 13.9318 27.1402 10.6371 30.9265 5.70026C30.9265 5.70026 25.4667 1.00398 17.8418 4.07905C19.6722 5.47016 27.2239 11.6412 17.8418 18.7641C18.1242 20.4585 19.7559 32.2777 32.8511 35.6874Z" fill="#F27D00"/>
<path d="M14.8603 15.7205C17.3558 15.7205 19.3787 13.6976 19.3787 11.2021C19.3787 8.70658 17.3558 6.68359 14.8603 6.68359C12.3648 6.68359 10.3418 8.70658 10.3418 11.2021C10.3418 13.6976 12.3648 15.7205 14.8603 15.7205Z" fill="#F27D00"/>
<path d="M33.8652 34.0665C33.8652 34.0665 27.349 28.6276 26.3867 19.2874C25.8638 21.9022 25.8428 31.2948 33.8652 34.0665Z" fill="#F27D00"/>
<path d="M34.492 31.8591C34.492 31.8591 34.5548 17.4984 50.6623 15.8771C50.6623 15.8771 53.9884 15.1136 60.1176 16.1595C60.1176 16.1595 61.7179 9.14127 55.4422 3.82788C55.0657 6.09758 53.1412 15.6575 42.4516 10.6788C41.0919 11.7247 31.4065 18.6907 34.492 31.8591Z" fill="#F27D00"/>
<path d="M47.7548 9.0367C50.2503 9.0367 52.2733 7.01371 52.2733 4.51823C52.2733 2.02275 50.2503 -0.000244141 47.7548 -0.000244141C45.2593 -0.000244141 43.2363 2.02275 43.2363 4.51823C43.2363 7.01371 45.2593 9.0367 47.7548 9.0367Z" fill="#F27D00"/>
<path d="M36.4068 32.0055C36.4068 32.0055 38.1744 23.7112 45.9876 18.4919C43.4355 19.2555 35.1098 23.6171 36.4068 32.0055Z" fill="#F27D00"/>
<path d="M38.5088 31.4724C38.5088 31.4724 50.9764 24.36 60.4318 37.497C60.4318 37.497 62.7537 39.9968 64.9084 45.8227C64.9084 45.8227 71.7907 43.7099 73.255 35.6143C71.1108 36.4197 61.8542 39.5261 60.8397 27.7802C59.2498 27.1212 48.3825 22.2053 38.5088 31.4724Z" fill="#F27D00"/>
<path d="M68.8202 33.815C71.3157 33.815 73.3387 31.792 73.3387 29.2966C73.3387 26.8011 71.3157 24.7781 68.8202 24.7781C66.3247 24.7781 64.3018 26.8011 64.3018 29.2966C64.3018 31.792 66.3247 33.815 68.8202 33.815Z" fill="#F27D00"/>
<path d="M39.3457 33.1981C39.3457 33.1981 47.4204 30.5832 55.8298 34.7461C53.9052 32.9052 45.9665 27.8847 39.3457 33.1981Z" fill="#F27D00"/>
<path d="M40.8516 34.6416C40.8516 34.6416 53.4343 41.5657 47.1586 56.4809C47.1586 56.4809 46.2382 59.7651 42.3891 64.6497C42.3891 64.6497 47.7862 69.4192 55.4529 66.4383C53.6434 65.0262 46.165 58.761 55.6517 51.7532C55.3797 50.0693 53.9049 38.2292 40.8516 34.6416Z" fill="#F27D00"/>
<path d="M58.5282 63.8863C61.0237 63.8863 63.0467 61.8633 63.0467 59.3678C63.0467 56.8723 61.0237 54.8494 58.5282 54.8494C56.0328 54.8494 54.0098 56.8723 54.0098 59.3678C54.0098 61.8633 56.0328 63.8863 58.5282 63.8863Z" fill="#F27D00"/>
<path d="M39.8066 36.2524C39.8066 36.2524 46.2497 41.775 47.0969 51.1257C47.6512 48.5213 47.7976 39.1288 39.8066 36.2524Z" fill="#F27D00"/>
<path d="M223.635 43.3875V46.2275H228.215V48.8675H223.635V51.9475H228.815V54.6875H220.215V40.6475H228.815V43.3875H223.635Z" fill="#222222"/>
<path d="M204.4 47.6475C204.4 46.2609 204.7 45.0275 205.3 43.9475C205.9 42.8542 206.734 42.0075 207.8 41.4075C208.88 40.7942 210.1 40.4875 211.46 40.4875C213.127 40.4875 214.554 40.9275 215.74 41.8075C216.927 42.6875 217.72 43.8876 218.12 45.4076H214.36C214.08 44.8209 213.68 44.3742 213.16 44.0676C212.654 43.7609 212.074 43.6075 211.42 43.6075C210.367 43.6075 209.514 43.9742 208.86 44.7076C208.207 45.4409 207.88 46.4209 207.88 47.6475C207.88 48.8742 208.207 49.8542 208.86 50.5876C209.514 51.3209 210.367 51.6875 211.42 51.6875C212.074 51.6875 212.654 51.5342 213.16 51.2276C213.68 50.9209 214.08 50.4742 214.36 49.8876H218.12C217.72 51.4076 216.927 52.6075 215.74 53.4875C214.554 54.3542 213.127 54.7875 211.46 54.7875C210.1 54.7875 208.88 54.4876 207.8 53.8876C206.734 53.2742 205.9 52.4275 205.3 51.3475C204.7 50.2675 204.4 49.0342 204.4 47.6475Z" fill="#222222"/>
<path d="M202.501 54.6875H199.081L193.361 46.0275V54.6875H189.941V40.6475H193.361L199.081 49.3475V40.6475H202.501V54.6875Z" fill="#222222"/>
<path d="M183.935 52.2075H178.695L177.855 54.6875H174.275L179.355 40.6475H183.315L188.395 54.6875H184.775L183.935 52.2075ZM183.055 49.5675L181.315 44.4275L179.595 49.5675H183.055Z" fill="#222222"/>
<path d="M172.716 54.6875H169.296L163.576 46.0275V54.6875H160.156V40.6475H163.576L169.296 49.3475V40.6475H172.716V54.6875Z" fill="#222222"/>
<path d="M154.269 54.6875L151.349 49.3875H150.529V54.6875H147.109V40.6475H152.849C153.956 40.6475 154.896 40.8408 155.669 41.2275C156.456 41.6141 157.043 42.1475 157.429 42.8275C157.816 43.4941 158.009 44.2408 158.009 45.0675C158.009 46.0008 157.743 46.8341 157.209 47.5675C156.689 48.3008 155.916 48.8208 154.889 49.1275L158.129 54.6875H154.269ZM150.529 46.9675H152.649C153.276 46.9675 153.743 46.8141 154.049 46.5075C154.369 46.2008 154.529 45.7675 154.529 45.2075C154.529 44.6741 154.369 44.2541 154.049 43.9475C153.743 43.6408 153.276 43.4875 152.649 43.4875H150.529V46.9675Z" fill="#222222"/>
<path d="M139.709 43.3875V46.2275H144.289V48.8675H139.709V51.9475H144.889V54.6875H136.289V40.6475H144.889V43.3875H139.709Z" fill="#222222"/>
<path d="M134.859 40.6475L129.879 54.6875H125.599L120.619 40.6475H124.259L127.739 51.2475L131.239 40.6475H134.859Z" fill="#222222"/>
<path d="M112.597 54.8275C111.277 54.8275 110.064 54.5208 108.957 53.9075C107.864 53.2942 106.99 52.4408 106.337 51.3475C105.697 50.2408 105.377 49.0008 105.377 47.6275C105.377 46.2542 105.697 45.0208 106.337 43.9275C106.99 42.8342 107.864 41.9808 108.957 41.3675C110.064 40.7542 111.277 40.4475 112.597 40.4475C113.917 40.4475 115.124 40.7542 116.217 41.3675C117.324 41.9808 118.19 42.8342 118.817 43.9275C119.457 45.0208 119.777 46.2542 119.777 47.6275C119.777 49.0008 119.457 50.2408 118.817 51.3475C118.177 52.4408 117.31 53.2942 116.217 53.9075C115.124 54.5208 113.917 54.8275 112.597 54.8275ZM112.597 51.7075C113.717 51.7075 114.61 51.3342 115.277 50.5875C115.957 49.8408 116.297 48.8542 116.297 47.6275C116.297 46.3875 115.957 45.4008 115.277 44.6675C114.61 43.9208 113.717 43.5475 112.597 43.5475C111.464 43.5475 110.557 43.9142 109.877 44.6475C109.21 45.3808 108.877 46.3742 108.877 47.6275C108.877 48.8675 109.21 49.8608 109.877 50.6075C110.557 51.3408 111.464 51.7075 112.597 51.7075Z" fill="#222222"/>
<path d="M100.043 45.0876C99.7892 44.6209 99.4226 44.2675 98.9426 44.0275C98.4759 43.7742 97.9226 43.6475 97.2826 43.6475C96.1759 43.6475 95.2892 44.0142 94.6226 44.7476C93.9559 45.4676 93.6226 46.4342 93.6226 47.6475C93.6226 48.9409 93.9692 49.9542 94.6626 50.6875C95.3692 51.4075 96.3359 51.7675 97.5626 51.7675C98.4026 51.7675 99.1092 51.5542 99.6826 51.1275C100.269 50.7009 100.696 50.0875 100.963 49.2875H96.6226V46.7675H104.063V49.9475C103.809 50.8009 103.376 51.5942 102.763 52.3275C102.163 53.0609 101.396 53.6542 100.463 54.1075C99.5292 54.5609 98.4759 54.7875 97.3026 54.7875C95.9159 54.7875 94.6759 54.4876 93.5826 53.8876C92.5026 53.2742 91.6559 52.4275 91.0426 51.3475C90.4426 50.2675 90.1426 49.0342 90.1426 47.6475C90.1426 46.2609 90.4426 45.0275 91.0426 43.9475C91.6559 42.8542 92.5026 42.0075 93.5826 41.4075C94.6626 40.7942 95.8959 40.4875 97.2826 40.4875C98.9626 40.4875 100.376 40.8942 101.523 41.7075C102.683 42.5209 103.449 43.6476 103.823 45.0876H100.043Z" fill="#222222"/>
<path d="M182.6 19.3875V22.2275H187.18V24.8675H182.6V27.9475H187.78V30.6875H179.18V16.6475H187.78V19.3875H182.6Z" fill="#222222"/>
<path d="M176.72 16.6475V30.6875H173.3V22.2675L170.16 30.6875H167.4L164.24 22.2475V30.6875H160.82V16.6475H164.86L168.8 26.3675L172.7 16.6475H176.72Z" fill="#222222"/>
<path d="M158.342 16.6475V30.6875H154.922V16.6475H158.342Z" fill="#222222"/>
<path d="M153.206 16.6475V19.3875H149.486V30.6875H146.066V19.3875H142.346V16.6475H153.206Z" fill="#222222"/>
<path d="M132.756 28.0475H137.236V30.6875H129.336V16.6475H132.756V28.0475Z" fill="#222222"/>
<path d="M123.33 28.2075H118.09L117.25 30.6875H113.67L118.75 16.6475H122.71L127.79 30.6875H124.17L123.33 28.2075ZM122.45 25.5675L120.71 20.4275L118.99 25.5675H122.45Z" fill="#222222"/>
<path d="M107.19 19.3875V22.2275H111.77V24.8675H107.19V27.9475H112.37V30.6875H103.77V16.6475H112.37V19.3875H107.19Z" fill="#222222"/>
<path d="M97.8827 30.6875L94.9627 25.3875H94.1427V30.6875H90.7227V16.6475H96.4627C97.5693 16.6475 98.5093 16.8408 99.2827 17.2275C100.069 17.6141 100.656 18.1475 101.043 18.8275C101.429 19.4941 101.623 20.2408 101.623 21.0675C101.623 22.0008 101.356 22.8341 100.823 23.5675C100.303 24.3008 99.5293 24.8208 98.5027 25.1275L101.743 30.6875H97.8827ZM94.1427 22.9675H96.2627C96.8893 22.9675 97.356 22.8141 97.6627 22.5075C97.9827 22.2008 98.1427 21.7675 98.1427 21.2075C98.1427 20.6741 97.9827 20.2541 97.6627 19.9475C97.356 19.6408 96.8893 19.4875 96.2627 19.4875H94.1427V22.9675Z" fill="#222222"/>
</svg>
